<svg xmlns="http://www.w3.org/2000/svg" width="250.719" height="52.875" viewBox="0 0 250.719 52.875">
  <defs>
    <style>
      .cls-1 {
        fill: #cafb42;
      }

      .cls-1, .cls-2 {
        fill-rule: evenodd;
      }

      .cls-2 {
        fill: #fff;
      }
    </style>
  </defs>
  <path class="cls-1" d="M140.125,77.334q0-8.364,0-16.729c0.085-3.441.263-10.268,0.251-11.148a2.911,2.911,0,0,1,.084-0.656,2.39,2.39,0,0,1,.419-0.82c0.738-1.2,2.511-4.082,2.913-4.531a0.368,0.368,0,0,0,.126-0.3A0.36,0.36,0,0,0,143.644,43c-0.719-.195-1.426-0.431-2.141-0.638a0.33,0.33,0,0,1-.31-0.381,7.626,7.626,0,0,0-2.986-6.249c-0.223-.2-0.3-0.22-0.371.126-0.279,1.4-.589,2.787-0.9,4.177-0.248,1.116-1.087,1.071-1.818.545a1.957,1.957,0,0,1-.295-0.224,0.855,0.855,0,0,1-.351-0.876c0.328-1.429.578-2.876,0.856-4.317a1.545,1.545,0,0,0,0-.243c-1.975,1.071-3.7,2.317-4.436,4.491a4.9,4.9,0,0,0-.261,1.983,4.056,4.056,0,0,0,.279,1.261,4.3,4.3,0,0,0,.415.737c0.2,0.276,1.332,1.918,1.423,2.049a17.611,17.611,0,0,1,1.424,2.459c0.13,0.273.451,1.073,0.586,1.394a5.989,5.989,0,0,1,.435,1.389,7.3,7.3,0,0,1,.078,1.037l-0.012,25.69-6.948-3.956q-0.006-9.174-.011-18.348c0.124-.1.3-0.255,0.487-0.45a5.913,5.913,0,0,0,1.173-1.577,4.5,4.5,0,0,0,.328-2.466,4.609,4.609,0,0,0-9.09-.065,4.771,4.771,0,0,0,.25,2.376,4.059,4.059,0,0,0,.917,1.451,3.915,3.915,0,0,0,.9.668c0,5.184,0,10.45,0,15.634l-9.6-5.509q0-13.542,0-27.083l23.915-13.549L161.556,38.07q0,13.553,0,27.1l-10.211,5.841-0.084-15.821c0.189-.284.381-0.553,0.586-0.82a13.931,13.931,0,0,0,1.172-1.557,4.806,4.806,0,0,0,.62-1.7,4.146,4.146,0,0,0-.645-2.336,5.567,5.567,0,0,0-2.235-2.151,2.666,2.666,0,0,0-.745-0.247c-0.567-.1-0.792.088-0.736,0.648a1.268,1.268,0,0,0,.145.549,11.708,11.708,0,0,1,.749,1.981,0.7,0.7,0,0,1-.362.82,3.115,3.115,0,0,1-2.684.8,0.866,0.866,0,0,1-.735-0.583c-0.249-.663-0.5-1.325-0.754-1.987a1.286,1.286,0,0,0-.081-0.188,0.579,0.579,0,0,0-.488-0.438,0.655,0.655,0,0,0-.437.442,6.306,6.306,0,0,0-.571,2.833,5.851,5.851,0,0,0,.158,1.4,5.945,5.945,0,0,0,1.1,1.792c0.11,0.132,1.081,1.293,1.172,1.394a2.642,2.642,0,0,1,.515.872,2.075,2.075,0,0,1,.088.434q0,8.12,0,16.239ZM128.732,50.522l-0.586.82,0.586,0.738-0.921.328,0.084,1.066-1-.164-0.419.9-0.753-.656-0.817.556-0.409-.844-0.952.043,0.084-.984-0.845-.37,0.594-.777-0.586-.82,1-.246-0.168-1.065,1.005,0.246,0.335-.984,0.837,0.656,0.754-.574q0.168,0.451.335,0.9l1-.082-0.084.9Z" transform="translate(-113.656 -24.531)"/>
  <path id="Boldman" class="cls-2" d="M190.271,51.347A6.859,6.859,0,0,0,194.14,49a6.989,6.989,0,0,0,1.476-4.6,6.843,6.843,0,0,0-2.459-5.622q-2.459-2-7.033-2h-12.7V66.85H186.38q4.832,0,7.376-2.194a7.491,7.491,0,0,0,2.544-5.984,7.318,7.318,0,0,0-6.029-7.325h0Zm-10.818-9.753H184.8a5.237,5.237,0,0,1,3.549,1.022,3.666,3.666,0,0,1,1.154,2.9,3.564,3.564,0,0,1-1.176,2.875,5.177,5.177,0,0,1-3.441,1h-5.431V41.594Zm5.73,20.358h-5.73V53.689h5.687a5.629,5.629,0,0,1,3.7,1.087,3.794,3.794,0,0,1,1.3,3.087,3.7,3.7,0,0,1-1.283,3.045,5.692,5.692,0,0,1-3.677,1.044h0Zm26.68-19a13.184,13.184,0,0,0-6.221,1.448,10.616,10.616,0,0,0-4.34,4.2,12.7,12.7,0,0,0-1.582,6.452,12.587,12.587,0,0,0,1.582,6.431,10.8,10.8,0,0,0,4.34,4.195,13.9,13.9,0,0,0,12.442,0,10.8,10.8,0,0,0,4.34-4.195,12.6,12.6,0,0,0,1.582-6.431,12.71,12.71,0,0,0-1.582-6.452,10.622,10.622,0,0,0-4.34-4.2,13.182,13.182,0,0,0-6.221-1.448h0Zm0,5.2a5.8,5.8,0,0,1,4.276,1.767,6.99,6.99,0,0,1,1.753,5.132,6.989,6.989,0,0,1-1.753,5.132,6.056,6.056,0,0,1-8.552,0,6.985,6.985,0,0,1-1.753-5.132,6.986,6.986,0,0,1,1.753-5.132,5.8,5.8,0,0,1,4.276-1.767h0Zm16.8-12.82V66.85H234.7V35.333h-6.028Zm21.165,7.624a10.21,10.21,0,0,0-5.388,1.448,9.793,9.793,0,0,0-3.741,4.2,14.5,14.5,0,0,0-1.347,6.452A14.5,14.5,0,0,0,240.7,61.5a9.789,9.789,0,0,0,3.741,4.2,10.2,10.2,0,0,0,5.388,1.448,8.925,8.925,0,0,0,5.109-1.427A8.058,8.058,0,0,0,258,61.909v4.94h5.986V35.333H258v12.82a7.941,7.941,0,0,0-3.057-3.791,9.029,9.029,0,0,0-5.109-1.405h0Zm1.881,5.238a5.977,5.977,0,0,1,4.511,1.853,6.937,6.937,0,0,1,1.774,5,6.876,6.876,0,0,1-1.774,4.962,6.5,6.5,0,0,1-9.044.042,6.993,6.993,0,0,1-1.71-5,7.074,7.074,0,0,1,1.71-5.026,5.911,5.911,0,0,1,4.533-1.832h0ZM298.7,43.17a9.119,9.119,0,0,0-5.345,1.64,8.6,8.6,0,0,0-3.292,4.749,8.374,8.374,0,0,0-3.079-4.77,8.766,8.766,0,0,0-5.3-1.618,9.079,9.079,0,0,0-5.194,1.512,7.75,7.75,0,0,0-3.1,4.45V43.6h-3.036V66.85h3.036V54.5q0-4.3,2.009-6.516a6.92,6.92,0,0,1,5.388-2.215,6.391,6.391,0,0,1,4.981,2,8.269,8.269,0,0,1,1.817,5.75V66.85h2.95V54.5q0-4.3,2.01-6.516a6.917,6.917,0,0,1,5.387-2.215,6.39,6.39,0,0,1,4.981,2,8.265,8.265,0,0,1,1.818,5.75V66.85h2.993V53.306q0-4.982-2.5-7.56a8.68,8.68,0,0,0-6.52-2.576h0ZM324.229,43.3a11.2,11.2,0,0,0-5.687,1.427,9.807,9.807,0,0,0-3.869,4.131,13.757,13.757,0,0,0-1.39,6.368,13.65,13.65,0,0,0,1.39,6.324,9.894,9.894,0,0,0,3.89,4.153,11.1,11.1,0,0,0,5.666,1.448,9.961,9.961,0,0,0,6.05-1.831,9.266,9.266,0,0,0,3.442-4.855V66.85h2.95V43.6h-2.95v6.389a9.271,9.271,0,0,0-3.442-4.855,9.964,9.964,0,0,0-6.05-1.831h0ZM325,45.938a8.756,8.756,0,0,1,4.468,1.15,8.111,8.111,0,0,1,3.122,3.258,11.062,11.062,0,0,1,0,9.753,8.113,8.113,0,0,1-3.122,3.258A8.761,8.761,0,0,1,325,64.507a8.3,8.3,0,0,1-6.306-2.492,9.444,9.444,0,0,1-2.373-6.793,9.445,9.445,0,0,1,2.373-6.793A8.3,8.3,0,0,1,325,45.938h0Zm30.23-2.768a9.456,9.456,0,0,0-5.388,1.575,8.077,8.077,0,0,0-3.249,4.557V43.6h-3.036V66.85h3.036V54.5q0-4.344,2.073-6.58a7.243,7.243,0,0,1,5.58-2.236,6.913,6.913,0,0,1,5.259,2.023,8.114,8.114,0,0,1,1.924,5.814V66.85h2.951V53.306q0-4.982-2.544-7.56a8.879,8.879,0,0,0-6.606-2.576h0Z" transform="translate(-113.656 -24.531)"/>
</svg>
